<?xml version="1.0" standalone="no"?>
<!DOCTYPE svg PUBLIC "-//W3C//DTD SVG 20010904//EN"
 "http://www.w3.org/TR/2001/REC-SVG-20010904/DTD/svg10.dtd">
<svg version="1.0" xmlns="http://www.w3.org/2000/svg"
 width="700.000000pt" height="700.000000pt" viewBox="0 0 700.000000 700.000000"
 preserveAspectRatio="xMidYMid meet">
<metadata>
Created by potrace 1.14, written by Peter Selinger 2001-2017
</metadata>
<g transform="translate(0.000000,700.000000) scale(0.100000,-0.100000)"
fill="#000000" stroke="none">
<path d="M2127 6633 c-195 -28 -352 -107 -493 -247 -171 -172 -279 -412 -329
-736 -25 -163 -25 -604 0 -724 2 -12 7 -45 10 -75 3 -30 8 -65 11 -78 5 -18 2
-23 -13 -23 -10 0 -23 -4 -28 -8 -6 -5 -44 -21 -85 -37 -75 -28 -143 -58 -275
-121 -326 -156 -615 -387 -759 -609 -121 -186 -167 -339 -161 -544 5 -182 59
-337 176 -506 56 -82 191 -225 274 -292 57 -46 223 -163 231 -163 3 0 24 -13
47 -28 87 -59 377 -196 535 -252 47 -17 61 -27 58 -39 -3 -9 -7 -38 -11 -66
-3 -27 -8 -66 -10 -85 -20 -155 -26 -487 -12 -620 11 -100 18 -154 23 -169 3
-8 7 -30 10 -50 11 -73 64 -242 103 -326 164 -353 456 -550 826 -556 306 -4
687 145 1045 409 41 31 80 61 87 66 18 16 33 28 76 60 l37 28 38 -28 c40 -31
68 -53 86 -69 63 -58 318 -221 437 -280 167 -84 363 -153 482 -170 20 -3 54
-7 75 -10 43 -7 197 -7 227 -2 11 3 41 8 68 11 68 10 180 50 256 92 312 171
502 530 538 1019 13 162 6 481 -12 595 -2 14 -7 50 -10 80 -3 30 -8 62 -11 71
-3 12 11 22 58 39 301 108 635 292 829 456 79 67 208 205 255 274 81 117 144
253 160 345 3 16 9 48 14 70 13 57 4 259 -15 329 -116 433 -523 788 -1215
1059 -47 19 -84 38 -83 43 0 5 4 43 8 84 4 41 8 77 10 80 8 12 19 227 19 355
0 197 -13 356 -38 465 -3 14 -8 36 -10 50 -22 128 -114 348 -192 458 -67 95
-174 200 -257 251 -352 217 -814 167 -1317 -142 -120 -74 -307 -209 -374 -269
-11 -10 -22 -18 -25 -18 -3 0 -47 33 -98 74 -91 73 -295 216 -308 216 -4 0
-19 9 -34 20 -46 32 -260 136 -341 165 -217 77 -415 103 -593 78z m306 -479
c131 -34 219 -70 377 -157 107 -58 344 -231 338 -247 -2 -5 -30 -37 -64 -72
-62 -64 -182 -200 -242 -275 -18 -23 -44 -54 -58 -70 -13 -15 -68 -88 -122
-160 -54 -74 -106 -135 -117 -137 -11 -3 -40 -7 -65 -10 -49 -6 -99 -13 -145
-22 -16 -3 -48 -7 -70 -10 -39 -6 -365 -71 -395 -79 -57 -16 -90 -22 -91 -16
-23 114 -33 499 -16 643 40 356 190 587 407 627 63 11 190 4 263 -15z m2460
-4 c65 -24 139 -79 181 -134 75 -99 145 -300 163 -471 19 -168 2 -655 -22
-655 -2 0 -15 4 -29 9 -21 9 -217 53 -296 67 -85 16 -189 34 -215 38 -30 5
-54 8 -150 22 -66 9 -87 13 -90 16 -134 188 -339 442 -478 592 -51 54 -95 105
-100 112 -9 15 -7 16 98 95 166 124 374 239 521 288 159 53 311 61 417 21z
m-1318 -790 c80 -84 111 -119 175 -196 l60 -72 -311 0 c-285 1 -309 2 -296 17
30 35 218 249 254 288 43 47 37 49 118 -37z m340 -744 c39 -3 111 -8 160 -11
73 -5 94 -10 113 -27 12 -12 22 -25 22 -28 0 -4 22 -40 49 -81 142 -217 376
-646 497 -914 34 -76 39 -95 30 -115 -61 -147 -212 -451 -315 -635 -85 -151
-276 -459 -294 -473 -46 -37 -860 -47 -1237 -16 -41 4 -82 6 -92 6 -9 0 -23 7
-31 16 -17 20 -207 320 -207 328 0 3 -16 30 -35 60 -19 30 -35 57 -35 60 0 3
-18 36 -39 72 -51 88 -176 336 -245 485 l-54 118 68 147 c83 179 176 360 275
537 37 65 202 335 246 402 31 48 37 53 74 54 22 1 54 3 70 4 17 2 89 6 160 10
72 4 131 8 132 9 6 5 621 -2 688 -8z m-1722 -149 c-15 -23 -71 -122 -124 -221
l-97 -178 -31 98 c-85 282 -87 264 24 290 163 39 210 49 233 52 l22 2 -27 -43z
m2742 12 c44 -10 94 -21 112 -24 40 -6 83 -23 83 -31 0 -12 -91 -328 -98 -340
-5 -9 -18 7 -37 44 -48 93 -161 296 -190 341 l-26 42 38 -7 c21 -3 74 -15 118
-25z m-3470 -344 c51 -180 128 -410 188 -561 l44 -112 -23 -57 c-54 -133 -148
-408 -199 -583 -44 -154 -57 -186 -71 -184 -9 2 -64 24 -123 49 -252 107 -476
248 -615 387 -136 137 -198 256 -197 381 1 79 7 109 37 174 91 201 321 391
674 560 128 61 222 100 234 97 5 -1 28 -69 51 -151z m4216 116 c90 -37 295
-139 369 -182 19 -12 71 -46 114 -78 274 -195 400 -407 360 -603 -12 -60 -61
-169 -91 -205 -10 -11 -29 -35 -43 -53 -35 -47 -174 -167 -256 -222 -158 -105
-537 -290 -555 -271 -3 5 -19 55 -34 113 -27 106 -145 470 -169 525 -43 98
-68 178 -61 203 3 15 27 81 52 147 69 181 152 441 189 585 16 63 22 80 28 80
2 0 46 -18 97 -39z m-3661 -1486 c23 -44 75 -139 116 -211 41 -72 74 -133 74
-137 0 -6 -6 -5 -80 12 -25 5 -58 12 -75 15 -44 8 -176 43 -181 49 -3 2 9 56
26 118 34 125 71 242 75 237 1 -2 22 -39 45 -83z m3065 -105 c36 -126 43 -165
34 -171 -12 -7 -140 -39 -214 -54 -16 -3 -41 -8 -55 -10 -68 -14 -70 -14 -63
-2 3 7 18 30 32 52 30 49 73 127 148 268 38 70 60 102 65 94 4 -8 28 -87 53
-177z m-3180 -660 c114 -27 109 -26 240 -50 61 -10 124 -22 140 -25 27 -5 147
-23 200 -31 11 -1 31 -3 45 -3 21 -1 46 -28 137 -148 127 -171 256 -326 387
-467 50 -54 92 -102 94 -106 9 -22 -270 -212 -435 -295 -446 -227 -749 -154
-883 212 -16 46 -32 97 -35 115 -3 18 -8 42 -12 52 -30 101 -40 465 -17 656 7
58 13 109 13 113 1 5 9 6 19 3 9 -3 58 -15 107 -26z m3315 28 c22 -143 28
-242 25 -428 -3 -211 -4 -227 -30 -352 -58 -274 -187 -449 -361 -488 -91 -21
-150 -20 -281 4 -90 17 -285 101 -423 184 -90 54 -300 208 -300 220 0 5 12 19
26 33 72 66 391 444 464 549 13 19 30 41 36 47 7 7 22 28 34 47 23 39 32 43
110 51 30 3 62 8 70 10 8 2 35 6 60 9 25 3 56 8 70 11 26 5 111 20 167 30 53
9 308 67 312 71 5 4 21 6 21 2z m-1436 -231 c-45 -54 -146 -168 -204 -230 -30
-32 -56 -63 -58 -68 -9 -23 -37 -2 -120 89 -128 139 -211 236 -207 242 2 3
141 4 310 2 l306 -3 -27 -32z"/>
<path d="M3371 4149 c-282 -53 -498 -270 -560 -564 -3 -16 -6 -79 -5 -140 1
-125 20 -202 79 -314 94 -178 275 -314 471 -354 79 -16 238 -15 304 2 110 29
226 90 315 168 49 42 121 144 156 218 110 235 81 518 -75 720 -102 132 -268
235 -425 263 -66 12 -199 12 -260 1z m231 -480 c179 -91 167 -358 -20 -425
-152 -54 -310 53 -313 214 -4 168 183 287 333 211z"/>
</g>
</svg>
